<?xml version="1.0" standalone="no"?>
<!DOCTYPE svg PUBLIC "-//W3C//DTD SVG 20010904//EN"
 "http://www.w3.org/TR/2001/REC-SVG-20010904/DTD/svg10.dtd">
<svg version="1.0" xmlns="http://www.w3.org/2000/svg"
 width="124.000000pt" height="124.000000pt" viewBox="0 0 124.000000 124.000000"
 preserveAspectRatio="xMidYMid meet">

<g transform="translate(0.000000,124.000000) scale(0.100000,-0.100000)"
fill="#000000" stroke="none">
<path d="M530 918 c-36 -18 -51 -34 -72 -78 -27 -54 -28 -58 -21 -174 5 -105
9 -121 30 -147 l25 -29 -24 -9 c-18 -8 -12 -10 34 -10 74 -1 102 10 118 48 21
51 7 111 -34 148 -21 19 -46 33 -61 33 -23 0 -25 4 -25 43 0 59 36 127 80 150
56 29 107 18 153 -34 42 -47 48 -44 15 9 -24 39 -86 71 -138 72 -20 0 -56 -10
-80 -22z"/>
<path d="M653 880 c41 -33 67 -91 67 -150 0 -36 4 -52 15 -57 21 -7 45 -55 45
-88 0 -34 -24 -80 -52 -99 -22 -15 -21 -16 27 -16 45 1 48 2 28 13 -21 12 -22
14 -7 35 8 12 16 37 16 55 3 173 -52 303 -137 323 l-30 7 28 -23z"/>
<path d="M667 612 c-29 -32 -18 -82 18 -82 42 0 72 59 43 88 -17 17 -42 15
-61 -6z"/>
<path d="M362 403 c2 -31 7 -39 26 -41 12 -2 22 2 22 8 0 7 -7 10 -15 7 -8 -4
-17 -2 -20 4 -4 5 4 13 17 18 l23 10 -24 0 c-28 1 -19 16 14 24 13 3 8 5 -13
6 -32 1 -33 0 -30 -36z"/>
<path d="M446 412 c-20 -39 -20 -41 4 -35 11 3 27 0 35 -7 20 -16 18 -3 -4 39
l-18 35 -17 -32z m23 -21 c-15 -5 -22 6 -14 19 6 9 10 9 16 -1 5 -8 4 -15 -2
-18z"/>
<path d="M514 426 c-18 -47 18 -83 50 -51 20 20 20 29 0 49 -19 20 -43 21 -50
2z m46 -12 c11 -12 11 -18 -2 -31 -19 -18 -38 -10 -38 16 0 33 20 40 40 15z"/>
<path d="M591 398 c1 -24 3 -35 6 -25 2 9 13 17 24 17 11 0 22 7 26 16 7 18
-12 34 -39 34 -15 0 -18 -8 -17 -42z m47 15 c2 -8 -5 -13 -17 -13 -12 0 -21 6
-21 16 0 18 31 15 38 -3z"/>
<path d="M661 405 c1 -22 3 -34 6 -27 6 14 43 16 43 2 0 -5 3 -10 8 -10 4 0 7
14 7 30 0 17 -3 30 -7 30 -5 0 -8 -7 -8 -15 0 -23 -30 -18 -40 8 -7 18 -9 16
-9 -18z"/>
<path d="M750 425 c-26 -31 13 -82 44 -56 19 16 21 42 4 59 -16 16 -33 15 -48
-3z m45 -25 c0 -29 -32 -41 -41 -16 -9 24 4 48 23 44 12 -2 18 -12 18 -28z"/>
<path d="M832 400 c0 -39 1 -41 7 -15 7 30 7 30 19 8 19 -34 32 -28 31 15 -1
23 -3 28 -6 15 -2 -13 -8 -23 -12 -23 -5 0 -16 10 -24 23 -16 21 -16 21 -15
-23z"/>
<path d="M902 403 c2 -31 7 -39 26 -41 12 -2 22 2 22 8 0 7 -7 10 -15 7 -8 -4
-17 -2 -21 4 -3 6 5 13 17 17 l24 6 -25 7 -25 6 25 11 25 11 -28 0 c-27 1 -28
-1 -25 -36z"/>
<path d="M280 400 c0 -16 5 -30 10 -30 6 0 10 5 10 10 0 14 37 12 43 -2 3 -7
6 3 6 22 0 28 -2 32 -10 18 -12 -22 -39 -24 -39 -3 0 8 -4 15 -10 15 -5 0 -10
-13 -10 -30z"/>
</g>
</svg>
